<svg width="177" height="165" viewBox="0 0 177 165" fill="none" xmlns="http://www.w3.org/2000/svg">
<g opacity="0.3" clip-path="url(#clip0_1_1536)">
<path d="M114.318 162.713C90.1618 162.713 59.1179 129.011 44.181 86.0281C33.7651 56.0626 33.4282 28.1019 43.2945 13.0618C47.5318 6.62358 53.542 2.92316 60.7046 2.35794C85.109 0.450326 117.438 34.8227 132.81 78.9717C143.225 108.946 143.562 136.907 133.696 151.938C129.468 158.376 123.448 162.077 116.295 162.642C115.639 162.686 114.947 162.713 114.318 162.713ZM62.6903 2.79069C62.0343 2.79069 61.3961 2.79069 60.749 2.86134C53.6573 3.41773 47.9307 6.94152 43.7289 13.3356C33.9335 28.2432 34.2881 56.0362 44.6154 85.8692C59.4902 128.649 90.3214 162.209 114.274 162.218C114.921 162.218 115.568 162.218 116.206 162.139C123.298 161.582 129.033 158.058 133.235 151.664C143.03 136.757 142.676 108.964 132.304 79.1307C117.474 36.3506 86.6337 2.79069 62.6903 2.79069Z" fill="black"/>
<path d="M119.38 164.064C96.4912 164.064 65.0484 133.41 46.6189 91.9366C32.8875 61.0262 29.4481 30.2924 37.8783 13.6272C41.2203 7.00353 46.1579 2.92335 52.567 1.49264C75.615 -3.68266 110.568 28.4289 130.407 73.0283C144.147 103.939 147.578 134.673 139.157 151.338C135.815 157.961 130.868 162.042 124.468 163.481C122.798 163.86 121.092 164.055 119.38 164.064ZM57.673 1.43965C55.9857 1.43407 54.303 1.61475 52.6557 1.97838C46.4061 3.37376 41.5837 7.37446 38.3038 13.848C29.9533 30.3895 33.384 60.9644 47.0621 91.7335C65.4119 133.021 96.6508 163.561 119.318 163.561C121.005 163.567 122.688 163.386 124.335 163.022C130.585 161.626 135.416 157.626 138.687 151.152C147.046 134.611 143.607 104.045 129.929 73.2667C111.579 31.9792 80.3754 1.43965 57.673 1.43965Z" fill="black"/>
<path d="M124.327 164.823C102.502 164.823 71.0059 137.278 49.6155 97.8536C32.4093 66.166 25.6811 33.7012 32.4625 15.1549C34.9357 8.38994 39.0312 3.83286 44.6514 1.62497C66.0772 -6.82683 103.158 22.5646 127.385 67.1463C144.582 98.8428 151.319 131.299 144.538 149.845C142.065 156.619 137.96 161.167 132.349 163.384L132.252 163.145L132.349 163.384C129.79 164.362 127.068 164.851 124.327 164.823ZM52.7182 0.66233C50.022 0.638338 47.3455 1.12071 44.8286 2.08421C39.3592 4.24794 35.3524 8.69904 32.9323 15.3315C26.2041 33.7542 32.9323 66.0512 50.0499 97.624C71.325 136.889 102.661 164.346 124.273 164.346C126.97 164.375 129.647 163.892 132.163 162.925C137.632 160.77 141.639 156.31 144.059 149.677C150.796 131.263 144.059 98.9576 126.942 67.3848C105.64 28.1196 74.339 0.66233 52.7182 0.66233Z" fill="black"/>
<path d="M129.078 165C108.149 165 76.9452 140.598 53.1792 103.718C32.6753 71.9242 22.5076 38.1877 27.2767 17.7868C28.9167 10.7745 32.2232 5.72287 37.1165 2.77313C56.6186 -8.91985 95.49 17.3187 123.821 61.2734C144.316 93.067 154.484 126.812 149.724 147.204C148.084 154.217 144.768 159.268 139.875 162.218C136.601 164.116 132.865 165.078 129.078 165ZM47.9845 0.476917C44.2525 0.389719 40.5696 1.33759 37.3469 3.21471C32.5689 6.07613 29.3688 11.0218 27.7288 17.9016C22.9951 38.2142 33.1363 71.7741 53.5692 103.453C81.7499 147.178 120.338 173.346 139.556 161.741L139.68 161.962L139.556 161.741C144.325 158.88 147.534 153.934 149.174 147.054C153.908 126.786 143.767 93.1818 123.334 61.5118C99.7184 24.8255 68.7011 0.476917 47.9845 0.476917Z" fill="black"/>
<path d="M133.422 164.611C132.34 164.611 131.223 164.55 130.071 164.435C109.345 162.227 80.7745 140.643 57.2655 109.45C25.0692 66.7048 12.8715 19.8445 30.0689 4.98103C34.315 1.31594 39.9884 -0.167764 46.9116 0.565255C67.6283 2.76431 96.199 24.3486 119.708 55.5417C151.913 98.2864 164.111 145.147 146.905 160.01C143.385 163.075 138.882 164.611 133.422 164.611ZM43.5785 0.900852C38.2598 0.900852 33.8275 2.39338 30.4057 5.36962C13.3945 20.0653 25.6277 66.6165 57.6733 109.158C81.0937 140.245 109.531 161.75 130.124 163.914C136.914 164.638 142.455 163.19 146.594 159.622L146.754 159.807L146.594 159.622C163.606 144.926 151.372 98.3747 119.327 55.8331C95.8976 24.746 67.4598 3.24121 46.8762 1.07748C45.781 0.958888 44.6802 0.899926 43.5785 0.900852Z" fill="black"/>
<path d="M137.269 163.631C117.235 163.631 87.707 144.599 61.8489 114.969C26.0978 74.0084 8.94477 26.1149 23.6423 8.21331C27.2768 3.79753 32.507 1.48367 39.2795 1.37769C59.3047 1.05975 89.1076 20.1624 115.178 50.0307C150.929 90.9915 168.091 138.885 153.42 156.787L153.225 156.628L153.42 156.787C149.795 161.202 144.556 163.525 137.792 163.622L137.269 163.631ZM39.7316 1.87225H39.2529C32.6665 1.9694 27.5339 4.21262 23.9969 8.52242C9.47664 26.2474 26.6563 73.876 62.23 114.634C88.2034 144.396 117.864 163.437 137.748 163.119C144.334 163.013 149.467 160.77 152.995 156.46C167.515 138.735 150.336 91.1063 114.771 50.3575C89.0012 20.8424 59.6238 1.87225 39.7316 1.87225Z" fill="black"/>
<path d="M140.469 162.112C121.268 162.112 93.0257 146.162 66.8928 120.206C27.9682 81.5771 5.95736 33.2508 17.8448 12.4613C20.8588 7.16241 25.7698 4.0537 32.4271 3.15289C51.5481 0.565239 82.069 16.9124 110.152 44.7937C149.086 83.4229 171.088 131.749 159.209 152.539C156.186 157.838 151.284 160.946 144.618 161.847C143.242 162.028 141.856 162.116 140.469 162.112ZM36.5492 3.3825C35.1855 3.37959 33.8232 3.46811 32.4715 3.64745C25.9737 4.53061 21.1868 7.5775 18.2881 12.7086C6.51583 33.3127 28.4824 81.374 67.2563 119.853C93.2828 145.738 121.393 161.635 140.443 161.635C141.806 161.639 143.169 161.55 144.52 161.37C151.027 160.487 155.805 157.44 158.704 152.309C170.485 131.705 148.518 83.6437 109.736 45.1734C83.709 19.297 55.6081 3.3825 36.5492 3.3825Z" fill="black"/>
<path d="M142.925 160.125C124.566 160.125 97.9633 147.116 72.2736 125.081C30.6099 89.3399 3.90077 41.1814 12.792 17.6895C15.15 11.5074 19.733 7.46253 26.4169 5.76687C44.4476 1.18329 75.1723 14.5984 104.718 39.9185C146.382 75.6687 173.091 123.818 164.209 147.31C161.851 153.492 157.268 157.537 150.584 159.242C148.077 159.85 145.505 160.147 142.925 160.125ZM34.1025 5.36944C31.5549 5.34751 29.0145 5.64422 26.541 6.2526C20.0255 7.9041 15.5577 11.8165 13.2441 17.8749C4.37944 41.1549 31.0442 89.0838 72.5839 124.737C101.997 149.96 132.553 163.331 150.442 158.782C156.957 157.131 161.425 153.219 163.739 147.169L163.978 147.257L163.739 147.169C172.603 123.88 145.939 75.9513 104.399 40.3071C78.798 18.343 52.3282 5.36944 34.1025 5.36944Z" fill="black"/>
<path d="M144.281 157.767C137.916 157.767 130.576 156.416 122.501 153.731C108.645 149.13 93.2475 140.757 78.0092 129.541C34.0229 97.1649 2.89032 49.7747 8.57254 23.8629C10.177 16.5946 14.4321 11.6312 21.2224 9.08774C29.4399 6.01436 40.9284 6.77387 54.4559 11.2691C68.3113 15.8792 83.7091 24.2427 98.9563 35.4588C142.934 67.8176 174.066 115.225 168.349 141.146C166.744 148.406 162.489 153.369 155.699 155.912C152.034 157.202 148.167 157.83 144.281 157.767ZM32.5868 7.76301C28.7936 7.68481 25.017 8.28299 21.4351 9.52932C14.8221 12.011 10.6646 16.8595 9.10443 23.9424C3.4222 49.6776 34.4661 96.8558 78.3106 129.109C108.521 151.364 138.883 161.688 155.557 155.453C162.179 152.971 166.327 148.132 167.888 141.04C173.57 115.305 142.526 68.1267 98.6903 35.8739C74.3304 17.9458 49.8994 7.76301 32.5868 7.76301Z" fill="black"/>
<path d="M144.475 155.162C128.262 155.162 106.632 147.584 84.0009 133.507C38.224 105.025 2.9339 58.9948 5.34508 30.9281C6.06311 22.6529 10.0611 16.4708 16.9134 13.053C32.8077 5.1046 61.9546 12.1698 92.9896 31.5198C138.775 59.9839 174.057 105.996 171.681 134.098H171.433H171.681C170.972 142.374 166.974 148.556 160.113 151.973C155.778 154.119 150.503 155.162 144.475 155.162ZM32.5063 10.3329C26.5581 10.3329 21.3546 11.3662 17.1173 13.4769C10.3448 16.8594 6.55954 22.7324 5.85037 30.9281C3.45692 58.8535 38.6495 104.672 84.2669 133.065C106.827 147.098 128.359 154.649 144.458 154.649C150.406 154.649 155.609 153.625 159.855 151.505C166.637 148.123 170.44 142.25 171.14 134.037C173.542 106.111 138.341 60.3018 92.7237 31.8995C70.1721 17.8839 48.6399 10.3329 32.5063 10.3329Z" fill="black"/>
<path d="M143.466 152.38C128.733 152.38 109.993 147.081 90.198 136.916C43.1534 112.753 4.0693 68.7184 3.0676 38.753C2.74847 29.2855 6.30319 21.973 13.3506 17.4954C27.9772 8.26643 56.1224 12.3289 86.8028 28.0933C133.839 52.2564 172.932 96.2906 173.933 126.256C174.243 135.723 170.689 143.036 163.65 147.522C158.456 150.781 151.568 152.38 143.466 152.38ZM33.5442 13.115C25.566 13.115 18.7491 14.687 13.6254 17.9193C6.73755 22.2556 3.2626 29.4533 3.57286 38.7441C4.57456 68.5418 43.5434 112.382 90.4462 136.474C120.958 152.15 148.953 156.213 163.393 147.072C170.281 142.727 173.756 135.529 173.446 126.247C172.444 96.4407 133.484 52.6009 86.5723 28.5084C66.8397 18.3962 48.1797 13.115 33.5353 13.115H33.5442Z" fill="black"/>
<path d="M140.815 149.783C128.165 149.783 112.945 146.409 96.4918 139.724C48.7558 120.295 6.26764 78.8392 1.791 47.3371C0.266284 36.6332 3.28025 28.0136 10.5049 22.4056C24.0589 11.8872 50.2184 12.9558 80.4734 25.2758C128.245 44.7141 170.706 86.1606 175.227 117.663C176.752 128.367 173.738 136.986 166.514 142.594C160.282 147.399 151.453 149.783 140.815 149.783ZM36.2123 15.7113C25.69 15.7113 16.9761 18.0605 10.8684 22.7765C3.77667 28.2697 0.84248 36.7304 2.3406 47.2399C6.77292 78.592 49.1458 119.853 96.7312 139.229C126.818 151.479 152.791 152.583 166.203 142.17C173.295 136.686 176.22 128.225 174.722 117.707C170.29 86.3637 127.926 45.0939 80.3316 25.7174C63.9143 19.0761 48.7558 15.7113 36.1769 15.7113H36.2123Z" fill="black"/>
<path d="M136.586 147.346C126.525 147.346 115.081 145.579 102.901 141.87C55.0316 127.51 9.63582 89.2429 1.64879 56.5573C-1.25881 44.6258 1.08145 34.655 8.43022 27.7134C20.6723 16.1617 45.245 14.4661 74.1703 23.1298C122.039 37.4899 167.435 75.7571 175.413 108.443C178.33 120.374 175.981 130.354 168.632 137.287C161.531 143.972 150.344 147.346 136.586 147.346ZM40.3961 18.1488C26.7711 18.1488 15.717 21.496 8.74049 28.0755C1.53355 34.8846 -0.7624 44.6965 2.10974 56.4425C10.0879 88.9691 55.2975 127.095 103.007 141.393C131.755 150.022 156.195 148.344 168.251 136.924C175.466 130.115 177.753 120.303 174.89 108.557C166.912 76.0308 121.702 37.905 73.9841 23.6156C61.8041 19.9593 50.4042 18.1488 40.3961 18.1488Z" fill="black"/>
<path d="M130.611 145.447C123.418 145.407 116.245 144.694 109.185 143.318C61.8303 134.337 13.9791 99.8142 2.51713 66.3161C-1.96837 53.2189 -0.443653 41.8262 6.94945 33.3656C17.8263 20.8866 40.5818 16.515 67.8228 21.6814C115.187 30.6631 163.038 65.2033 174.491 98.6838C178.976 111.781 177.452 123.183 170.059 131.634C162.196 140.66 148.11 145.447 130.611 145.447ZM46.397 20.0388C29.049 20.0388 15.1049 24.7636 7.33062 33.6747C0.0882179 41.994 -1.40105 53.2189 3.0224 66.1395C14.4312 99.4609 62.1051 133.851 109.309 142.806C136.373 147.937 158.951 143.636 169.713 131.325C176.955 123.015 178.453 111.781 174.03 98.8604C162.621 65.5389 114.938 31.1489 67.743 22.1937C60.7013 20.8186 53.546 20.1031 46.3704 20.0564L46.397 20.0388Z" fill="black"/>
<path d="M123.68 144.334C121.02 144.334 118.228 144.237 115.391 144.025C69.1356 140.66 19.3962 110.368 4.52131 76.5077C-1.59528 62.5627 -1.05453 49.3683 6.0549 39.3534C15.6642 25.8058 35.9198 19.1026 61.6007 20.9749C107.865 24.3397 157.596 54.632 172.471 88.4921C178.596 102.437 178.046 115.632 170.937 125.647C162.374 137.702 145.407 144.334 123.68 144.334ZM53.3034 21.2133C31.7534 21.2133 14.9284 27.7664 6.47154 39.689C-0.620163 49.6951 -1.15205 62.3772 4.99113 76.3488C19.7951 110.059 69.3395 140.219 115.427 143.575C140.93 145.429 161.009 138.806 170.529 125.399C177.621 115.393 178.144 102.711 172.01 88.7394C157.206 55.0294 107.661 24.8696 61.5652 21.5224C58.7462 21.2663 55.9893 21.2133 53.3034 21.2133Z" fill="black"/>
<path d="M115.497 144.14C72.4329 144.14 25.016 119.35 7.64136 86.9997C-0.292479 72.2333 -0.975059 57.5729 5.7266 45.7121C13.8909 31.299 32.0368 22.2997 55.5547 21.0279C100.144 18.5639 151.177 44.1754 169.359 78.0003C177.284 92.7667 177.966 107.427 171.265 119.288C163.127 133.701 144.954 142.7 121.401 144.016C119.451 144.087 117.474 144.14 115.497 144.14ZM61.5028 21.3812C59.529 21.3812 57.5669 21.4342 55.6167 21.5402C32.2407 22.8119 14.2189 31.7141 6.16983 45.9771C-0.443182 57.6789 0.239398 72.1715 8.08459 86.7789C25.3795 118.979 72.6013 143.645 115.488 143.654C117.462 143.654 119.424 143.601 121.375 143.495C144.751 142.206 162.817 133.304 170.795 119.049C177.408 107.339 176.725 92.8461 168.88 78.2388C151.612 46.0389 104.399 21.3635 61.5028 21.3635V21.3812Z" fill="black"/>
<path d="M107.492 145.005C69.9684 145.005 29.9534 126.017 11.843 97.677C2.0919 82.3807 -0.0356181 66.3514 5.90368 52.5212C12.4724 37.2338 28.4908 26.0265 49.8545 21.858C92.0945 13.5387 143.82 33.9396 165.157 67.3229C174.908 82.6192 177.035 98.6573 171.096 112.479C164.527 127.766 148.5 138.973 127.136 143.151C120.664 144.403 114.085 145.024 107.492 145.005ZM69.5163 20.4803C62.9503 20.4637 56.3982 21.0819 49.952 22.3261C28.7567 26.5034 12.8624 37.5694 6.36466 52.6978C0.496277 66.3691 2.58833 82.2394 12.2685 97.3855C33.4993 130.61 84.9585 150.914 127.039 142.638C148.243 138.47 164.128 127.395 170.626 112.267C176.503 98.5955 174.403 82.7251 164.731 67.579C146.709 39.3887 106.872 20.498 69.5163 20.498V20.4803Z" fill="black"/>
<path d="M100.303 146.931C68.3108 146.931 35.1394 132.535 17.1088 108.407C5.58475 92.9609 1.82614 75.7305 6.57758 59.9397C11.5329 43.4689 24.9894 30.5218 44.4739 23.4742C83.8239 9.23773 135.593 24.0924 159.882 56.5925C171.406 72.0478 175.165 89.2693 170.414 105.06C165.458 121.531 152.002 134.478 132.517 141.526C122.176 145.179 111.275 147.008 100.303 146.931ZM76.7056 18.5639C65.7857 18.4915 54.9363 20.3114 44.6423 23.9423C25.3174 30.928 11.9673 43.7691 7.06512 60.0722C2.35801 75.7129 6.06343 92.7489 17.5165 108.089C35.4497 132.085 68.4526 146.418 100.286 146.418C111.205 146.491 122.055 144.671 132.349 141.04C151.674 134.045 165.024 121.213 169.935 104.901C174.642 89.2516 170.928 72.2244 159.483 56.8752C141.541 32.8975 108.538 18.5639 76.7056 18.5639Z" fill="black"/>
<path d="M94.488 149.854C67.7878 149.854 40.662 138.982 23.3937 119.058C10.2652 103.886 4.73369 85.8164 7.83631 68.1797C10.9389 50.5431 22.1704 35.609 39.5274 25.8766C75.4202 5.75829 126.587 14.7577 153.597 45.9419C166.726 61.1057 172.213 79.175 169.164 96.8205C166.114 114.466 154.838 129.391 137.464 139.124C124.513 146.383 109.567 149.854 94.488 149.854ZM82.5208 15.6143C67.5218 15.6143 52.6559 19.0675 39.7756 26.2917C22.5516 35.9446 11.4088 50.8434 8.33273 68.2327C5.2567 85.6221 10.7439 103.647 23.7838 118.696C50.6436 149.713 101.527 158.668 137.251 138.656C154.466 129.003 165.618 114.104 168.694 96.7145C171.77 79.3252 166.274 61.3 153.243 46.251C136.054 26.4595 109.07 15.6408 82.5208 15.6408V15.6143Z" fill="black"/>
<path d="M90.4633 153.616C68.6031 153.616 46.6189 145.456 30.6537 129.488C16.2309 115.066 8.84667 96.5819 9.83951 77.4263C10.8146 58.6592 19.7856 41.4818 35.086 29.0558C66.9986 3.17055 116.889 6.09379 146.346 35.5205C160.76 49.9336 168.153 68.4181 167.151 87.5738C166.176 106.341 157.214 123.518 141.905 135.944C127.305 147.796 108.928 153.616 90.4633 153.616ZM86.5274 11.8873C68.1776 11.8873 49.9165 17.672 35.4051 29.4444C20.2111 41.8086 11.311 58.827 10.3448 77.4528C9.35196 96.4671 16.6919 114.819 31.0082 129.135C60.2615 158.403 109.903 161.282 141.594 135.556C156.78 123.191 165.68 106.173 166.655 87.5473C167.639 68.5417 160.299 50.1898 145.982 35.8738C130.115 20.0035 108.263 11.8873 86.5274 11.8873Z" fill="black"/>
<path d="M88.4511 158.014C71.1463 157.994 54.3694 152.076 40.9077 141.243C27.446 130.41 18.1102 115.314 14.4512 98.4635C10.7923 81.6131 13.0306 64.0227 20.7942 48.6149C28.5578 33.2071 41.3794 20.9097 57.1286 13.7658C72.8777 6.62186 90.6063 5.0616 107.369 9.34423C124.131 13.6269 138.918 23.4945 149.273 37.3077C159.627 51.1209 164.926 68.048 164.289 85.2765C163.652 102.505 157.117 118.998 145.77 132.014C138.656 140.202 129.853 146.763 119.96 151.251C110.068 155.738 99.3204 158.045 88.4511 158.014ZM88.5486 7.48928C70.9002 7.49052 53.8132 13.6685 40.2718 24.9443C26.7305 36.22 17.5955 51.8768 14.4625 69.18C11.3294 86.4833 14.3974 104.333 23.1305 119.612C31.8637 134.891 45.7069 146.628 62.2425 152.772C78.778 158.917 96.9548 159.079 113.598 153.231C130.241 147.382 144.293 135.894 153.3 120.773C162.306 105.652 165.694 87.8602 162.873 70.5038C160.051 53.1475 151.199 37.3303 137.863 25.8148C124.178 13.9854 106.666 7.47769 88.5486 7.48928Z" fill="black"/>
</g>
<defs>
<clipPath id="clip0_1_1536">
<rect width="177" height="165" fill="white"/>
</clipPath>
</defs>
</svg>
