<svg width="189" height="192" viewBox="0 0 189 192" fill="none" xmlns="http://www.w3.org/2000/svg">
<g opacity="0.8" clip-path="url(#clip0_1_1558)">
<path d="M26.7408 83.169C36.2174 65.9379 72.5434 57.0737 109.201 63.3568C134.758 67.735 154.924 78.5129 161.83 91.4775C164.781 97.0371 165.074 102.783 162.669 108.115C154.462 126.274 117.151 135.791 79.4874 129.358C53.9243 124.977 33.758 114.199 26.8586 101.238C23.9045 95.6844 23.6144 89.9326 26.0159 84.607C26.2416 84.1216 26.4939 83.618 26.7408 83.169ZM161.58 109.36C161.837 108.892 162.088 108.437 162.291 107.948C164.675 102.67 164.396 97.1964 161.463 91.6795C154.625 78.8176 134.572 68.1185 109.145 63.7293C72.6568 57.482 36.5155 66.25 27.1125 83.3323C26.8587 83.7939 26.6048 84.2555 26.4114 84.7421C24.0279 90.02 24.3027 95.4998 27.2356 101.017C34.0743 113.879 54.1273 124.578 79.5717 128.935C116.042 135.214 152.187 126.44 161.58 109.36Z" fill="black"/>
<path d="M23.7868 86.2472C32.7661 69.9202 67.0655 59.5709 104.011 62.7675C131.546 65.1531 154.916 74.8106 163.55 87.3912C166.984 92.3852 167.971 97.5151 166.482 102.651C161.148 121.131 124.427 133.41 84.6884 129.987C57.1504 127.608 33.7835 117.944 25.1466 105.369C21.7117 100.375 20.7288 95.2392 22.2082 90.1064C22.5921 88.7663 23.1214 87.4721 23.7868 86.2472ZM164.516 106.314C165.182 105.112 165.713 103.841 166.099 102.523C167.551 97.5147 166.576 92.4983 163.225 87.6077C154.648 75.1327 131.395 65.5316 103.983 63.1637C67.2013 59.9833 33.0642 70.2324 24.1718 86.4013C23.5055 87.6025 22.9748 88.874 22.5894 90.1926C21.1375 95.2004 22.1087 100.223 25.4638 105.107C34.0365 117.589 57.2866 127.18 84.7053 129.551C121.487 132.732 155.61 122.508 164.516 106.314Z" fill="black"/>
<path d="M21.3025 89.4762C29.8645 73.9081 61.9573 62.2958 98.5966 62.573C128.051 62.7862 153.952 70.7798 164.58 82.9255C168.457 87.3555 170.116 92.0727 169.493 96.9517C167.143 115.566 131.537 130.434 90.0891 130.148C60.6317 129.925 34.7337 121.942 24.1055 109.796C20.2223 105.362 18.5736 100.642 19.1866 95.7661L19.3958 95.7906L19.1866 95.7661C19.4896 93.5549 20.2074 91.4209 21.3025 89.4762ZM167.018 103.085C168.093 101.172 168.797 99.0722 169.094 96.8972C169.69 92.1431 168.072 87.5309 164.269 83.191C153.709 71.132 127.928 63.2045 98.5908 62.9733C62.1106 62.6766 30.1436 74.2099 21.6651 89.6262C20.5868 91.5385 19.8822 93.6385 19.5887 95.8143C18.987 100.565 20.6107 105.181 24.4135 109.521C34.9642 121.582 60.7546 129.507 90.0922 129.738C126.583 130.016 158.536 118.508 167.018 103.085Z" fill="black"/>
<path d="M19.3118 92.7961C27.5226 77.8667 57.2479 65.2241 92.9968 62.8043C123.821 60.7069 151.982 66.7482 164.729 78.1894C169.11 82.1224 171.432 86.4717 171.626 91.1246C172.353 109.644 138.304 127.032 95.6951 129.921C64.8743 132.012 36.7066 125.967 23.963 114.536C19.5821 110.603 17.2632 106.247 17.0693 101.594C16.994 98.5108 17.7699 95.4667 19.3118 92.7961ZM169.008 99.7818C170.534 97.1541 171.3 94.1534 171.219 91.1149C171.043 86.5791 168.755 82.3475 164.469 78.4666C151.772 67.0856 123.748 61.0949 93.0336 63.1869C50.6488 66.0587 16.761 83.2725 17.5362 101.555L17.3294 101.556L17.5362 101.555C17.7155 106.084 20.0002 110.322 24.2862 114.203C36.9517 125.566 65.0077 131.575 95.7155 129.479C131.266 127.09 160.88 114.56 169.008 99.7818Z" fill="black"/>
<path d="M17.8864 96.0477C18.3107 95.2763 18.7932 94.5039 19.3275 93.7271C29.0403 79.8131 55.7142 67.9384 87.287 63.4608C130.545 57.3383 168.906 67.1031 172.809 85.2275C173.769 89.7007 172.607 94.3323 169.365 98.982C159.662 112.893 132.989 124.768 101.416 129.245C58.1544 135.374 19.7934 125.609 15.8937 107.479C15.0786 103.761 15.7442 99.9429 17.8864 96.0477ZM170.433 96.4721C172.519 92.6781 173.189 88.9283 172.398 85.3147C168.542 67.3892 130.389 57.7715 87.3359 63.8665C55.8737 68.3227 29.309 80.1339 19.68 93.9704C16.4973 98.5287 15.3615 103.052 16.2939 107.411L16.0984 107.451L16.2939 107.411C20.1498 125.336 58.3033 134.954 101.356 128.859C132.822 124.396 159.387 112.585 169.012 98.7548C169.527 98.0203 170.001 97.2583 170.433 96.4721Z" fill="black"/>
<path d="M17.0795 99.1785C24.9391 84.8877 50.1598 71.3243 81.5342 64.555C124.908 55.1938 165.954 61.831 173.014 79.3694C174.753 83.7021 174.359 88.3447 171.778 93.2175C164.149 107.627 138.77 121.359 107.141 128.186C63.7673 137.547 22.7184 130.916 15.6473 113.397L15.8377 113.32L15.6473 113.397C13.9058 109.07 14.2968 104.418 16.8807 99.555L17.0795 99.1785ZM171.246 93.3451L171.434 93.0036C173.948 88.2671 174.354 83.7219 172.654 79.5006C165.65 62.1582 124.784 55.6444 81.6251 64.9591C50.1106 71.7584 24.8314 85.4132 17.2588 99.7218C14.7508 104.462 14.3445 109.007 16.0484 113.222C23.0521 130.564 63.9181 137.078 107.067 127.766C138.325 121.015 163.442 107.535 171.246 93.3451Z" fill="black"/>
<path d="M16.9121 102.06C24.4447 88.3633 46.9527 74.5023 75.8025 66.0892C118.751 53.5455 162.012 56.888 172.245 73.5599C174.859 77.798 175.16 82.5261 173.193 87.6299C167.546 102.289 143.86 117.619 112.865 126.664C69.9132 139.214 26.6555 135.865 16.4197 119.2C13.8089 114.955 13.5046 110.234 15.4744 105.123C15.8846 104.071 16.3649 103.048 16.9121 102.06ZM171.412 90.4798C171.949 89.5082 172.42 88.5016 172.822 87.4667C174.738 82.4836 174.433 77.8684 171.894 73.7786C161.749 57.262 118.695 53.9923 75.9131 66.4876C47.1556 74.8527 24.7377 88.6398 17.2642 102.229C16.7267 103.2 16.2557 104.207 15.8543 105.242C13.9345 110.231 14.2432 114.84 16.7825 118.93C26.9236 135.453 69.9776 138.723 112.757 126.217C141.508 117.849 163.935 104.075 171.412 90.4798Z" fill="black"/>
<path d="M17.3725 104.594C24.5747 91.4986 44.3322 77.6485 70.1985 68.0064C112.153 52.3708 157.137 52.2958 170.481 67.8954C173.985 72.0135 175.085 76.8766 173.678 82.3126C169.889 96.9805 148.223 113.611 118.49 124.709C76.5298 140.341 31.5519 140.42 18.2044 124.826C14.6999 120.708 13.5997 115.845 15.0006 110.406C15.5481 108.378 16.3448 106.426 17.3725 104.594ZM170.948 87.9516C171.963 86.1429 172.747 84.2139 173.282 82.2097C174.654 76.9113 173.604 72.1826 170.171 68.1448C156.968 52.6477 112.166 52.7816 70.3236 68.3635C40.7123 79.405 19.1443 95.9327 15.3853 110.486C14.0125 115.784 15.063 120.513 18.49 124.547L18.3328 124.683L18.49 124.547C31.6989 140.047 76.5012 139.914 118.337 124.328C144.118 114.722 163.798 100.952 170.948 87.9516Z" fill="black"/>
<path d="M18.5297 106.491C21.0267 101.951 24.8743 97.2476 29.9662 92.5449C38.6986 84.4747 50.7381 76.7902 64.7527 70.3401C105.207 51.7219 151.376 48.1888 167.713 62.4528C172.291 66.4615 174.178 71.4526 173.337 77.2985C172.315 84.3714 167.264 92.2672 158.736 100.145C149.997 108.212 137.964 115.9 123.946 122.356C83.5078 140.975 37.3262 144.501 20.9969 130.209C16.4249 126.203 14.5379 121.212 15.3793 115.366C15.8928 112.244 16.9596 109.238 18.5297 106.491ZM169.827 85.9271C171.372 83.2522 172.425 80.3225 172.937 77.2763C173.753 71.5812 171.91 66.7049 167.447 62.8009C151.237 48.6065 105.254 52.1599 64.9445 70.7257C37.1463 83.5057 17.838 101.095 15.764 115.446C14.9443 121.148 16.7845 126.014 21.2537 129.922C37.464 144.116 83.4463 140.563 123.753 122.003C146.155 111.691 163.036 98.2766 169.827 85.9271Z" fill="black"/>
<path d="M20.3207 107.657C26.6814 96.0914 40.5962 83.6484 59.5613 73.0522C97.9274 51.6219 144.753 44.5871 163.917 57.367C169.565 61.1401 172.426 66.4281 172.186 72.6628C171.646 87.1328 155.149 105.14 129.109 119.653C90.7525 141.097 43.9431 148.132 24.7397 135.363L24.8371 135.186L24.7397 135.363C19.0887 131.597 16.2276 126.309 16.4705 120.068C16.6334 116.13 17.9559 111.957 20.3207 107.657ZM168.018 84.8575C170.352 80.6145 171.653 76.4956 171.803 72.6412C172.036 66.4773 169.313 61.4629 163.719 57.7274C144.649 45.0159 98.0136 52.0646 59.7734 73.4159C40.8677 83.9789 27.0101 96.3628 20.6947 107.846C18.3612 112.089 17.0538 116.204 16.9067 120.069C16.6699 126.239 19.386 131.266 24.9962 135.002C44.0625 147.72 90.6951 140.661 128.942 119.314C147.831 108.75 161.689 96.366 168.018 84.8575Z" fill="black"/>
<path d="M22.7099 108.032C28.4898 97.5228 39.6383 86.2433 54.6874 76.1289C90.4564 52.0925 137.34 41.5649 159.204 52.6585C166.112 56.1616 169.957 61.5789 170.401 68.3704C171.275 82.4407 157.323 100.916 133.991 116.59C98.2259 140.62 51.3385 151.154 29.4751 140.06C22.5699 136.55 18.7249 131.133 18.2716 124.345C17.9745 119.355 19.5313 113.812 22.7099 108.032ZM165.617 84.5011C168.747 78.8101 170.295 73.328 169.989 68.3993C169.584 61.7773 165.791 56.4622 159.012 53.0224C137.269 41.9949 90.5692 52.5169 54.9064 76.4799C31.7042 92.0677 17.8109 110.436 18.6952 124.339C19.1064 130.964 22.9003 136.279 29.6727 139.716C51.4222 150.747 98.1182 140.231 133.784 116.262C148.771 106.171 159.876 94.941 165.621 84.4948L165.617 84.5011Z" fill="black"/>
<path d="M25.6102 107.165C30.5728 98.1413 38.9612 88.6135 50.206 79.5118C82.8546 53.1168 129.226 39.1448 153.554 48.3653C161.821 51.4956 166.815 57.0421 167.999 64.4056C170.218 78.2189 159.19 96.458 138.493 113.185C105.824 139.602 59.4696 153.558 35.1244 144.369C26.8569 141.239 21.8633 135.692 20.6794 128.329C19.6818 121.99 21.437 114.753 25.6102 107.165ZM162.71 85.3813C166.838 77.8755 168.574 70.7339 167.591 64.5187C166.437 57.2953 161.526 51.8683 153.408 48.7956C129.205 39.6027 83.018 53.5691 50.4665 79.8774C29.8865 96.5119 18.9059 114.604 21.1048 128.275C22.2523 135.495 27.1668 140.915 35.291 143.991C59.4875 153.181 105.677 139.224 138.232 112.91C149.432 103.816 157.789 94.3289 162.724 85.356L162.71 85.3813Z" fill="black"/>
<path d="M29.0153 105.109C32.9625 97.9319 38.7177 90.4645 46.1538 83.2379C75.2223 54.7504 120.45 37.448 147.003 44.6307C156.693 47.2584 162.919 52.8568 165.01 60.8343C168.484 74.1189 160.059 92.3155 142.503 109.535C113.435 138.022 68.2069 155.324 41.6575 148.135C31.9644 145.514 25.7354 139.906 23.651 131.932C21.6464 124.232 23.618 114.923 29.0153 105.109ZM159.322 87.4053C164.667 77.6863 166.606 68.4821 164.628 60.9129C162.577 53.0888 156.447 47.5846 146.904 45.0048C120.469 37.8784 75.4154 55.1037 46.4537 83.5017C28.9933 100.608 20.6077 118.703 24.06 131.803C26.108 139.633 32.241 145.131 41.7804 147.717C68.2159 154.843 113.27 137.618 142.228 109.21C149.626 101.963 155.396 94.5444 159.322 87.4053Z" fill="black"/>
<path d="M32.7199 101.595C35.5706 96.48 38.8954 91.6439 42.6505 87.1503C67.6636 56.9102 111.172 36.3806 139.67 41.4048C150.814 43.3662 158.379 48.9432 161.541 57.5509C166.215 70.2271 160.42 88.1819 146.031 105.578C121.015 135.824 77.4938 156.347 49.0116 151.323C37.8677 149.362 30.2965 143.781 27.1411 135.177C23.7587 126.012 25.855 114.077 32.7199 101.595ZM155.614 90.9414C162.42 78.5666 164.504 66.7581 161.17 57.701C158.05 49.2565 150.591 43.7709 139.598 41.8348C111.248 36.8423 67.9039 57.2977 42.9688 87.4407C28.675 104.724 22.899 122.524 27.4982 135.052C30.6115 143.493 38.0728 148.989 49.0659 150.925C77.4168 155.917 120.764 135.456 145.696 105.319C149.443 100.838 152.763 96.0156 155.612 90.9155L155.614 90.9414Z" fill="black"/>
<path d="M36.2371 97.0888C37.2804 95.1918 38.4454 93.2382 39.7102 91.2983C60.2676 59.6289 101.485 36.0855 131.582 38.8178C143.973 39.9499 153.215 45.535 157.602 54.5528C163.539 66.7459 160.395 83.8362 148.979 101.417C128.418 133.093 87.2039 156.63 57.1072 153.898C44.7124 152.772 35.4742 147.181 31.0874 138.163C25.8093 127.304 27.7133 112.587 36.2371 97.0888ZM152.063 95.4045C160.518 80.0324 162.423 65.4484 157.198 54.7177C152.811 45.716 143.932 40.3391 131.512 39.2156C101.55 36.4919 60.504 59.9484 40.019 91.5011C28.6849 108.963 25.5539 125.895 31.4246 137.969C35.8119 146.971 44.6936 152.342 57.1109 153.471C87.0721 156.195 128.119 132.739 148.601 101.176C149.89 99.2662 151.01 97.3205 152.063 95.4045Z" fill="black"/>
<path d="M39.5859 91.3288C56.4804 60.61 92.8448 36.5551 122.84 36.9091C136.533 37.0685 147.305 42.3587 153.174 51.813C160.298 63.3164 159.628 79.8066 151.313 97.0836C135.585 129.861 97.2136 156.172 65.8451 155.812C52.1559 155.647 41.3838 150.357 35.5145 140.902C28.3799 129.418 29.061 112.909 37.3583 95.5889C38.0728 94.1699 38.8104 92.7389 39.5859 91.3288ZM148.726 101.187C149.5 99.7794 150.232 98.359 150.921 96.9261C159.181 79.7502 159.872 63.3868 152.81 52.0248C147.02 42.6963 136.368 37.4723 122.824 37.3123C92.968 36.9605 56.7687 60.925 39.9374 91.5139C39.163 92.9219 38.4313 94.3424 37.7421 95.7753C29.4954 112.958 28.7864 129.353 35.8697 140.661C41.6662 149.993 52.318 155.217 65.862 155.377C95.708 155.748 131.91 131.793 148.739 101.194L148.726 101.187Z" fill="black"/>
<path d="M42.1061 85.2779C56.8271 58.5111 86.1302 37.4498 113.541 35.699C128.327 34.771 140.646 39.5698 148.226 49.2564C156.602 59.9662 158.348 75.8088 152.954 92.6907C142.344 126.1 107.434 154.958 75.1439 157.023C60.3586 157.951 48.0325 153.149 40.4594 143.465C32.0828 132.756 30.3403 116.907 35.7284 100.021C37.3701 94.9112 39.5061 89.9734 42.1061 85.2779ZM146.228 107.259C148.815 102.582 150.943 97.6643 152.58 92.5758C157.902 75.8106 156.209 60.1122 147.918 49.5156C140.425 39.9423 128.233 35.1808 113.583 36.1174C81.4486 38.1695 46.7129 66.8757 36.1337 100.154C30.8019 116.922 32.5051 132.617 40.7956 143.214C48.2855 152.794 60.4809 157.549 75.1274 156.618C102.396 154.872 131.56 133.899 146.215 107.252L146.228 107.259Z" fill="black"/>
<path d="M43.547 79.391C56.0979 56.57 79.4257 38.5806 103.787 35.2267C119.376 33.0931 133.196 37.2018 142.646 46.8136C152.503 56.8389 156.501 71.5397 153.907 88.2156C148.67 121.895 117.717 152.97 84.9015 157.489C69.3067 159.619 55.4928 155.514 46.0426 145.902C36.1851 135.877 32.1875 121.176 34.7818 104.5C36.2211 95.6838 39.1872 87.1869 43.547 79.391ZM144.78 113.142C149.116 105.381 152.068 96.9251 153.505 88.1513C156.081 71.6135 152.118 57.0304 142.36 47.1092C133 37.5882 119.34 33.5181 103.855 35.6429C79.6267 38.9794 56.4092 56.873 43.9209 79.5802C39.5851 87.3411 36.6328 95.7974 35.1959 104.571C32.6263 121.112 36.5833 135.692 46.3443 145.623C55.7107 155.148 69.368 159.208 84.8555 157.093C109.075 153.743 132.292 135.849 144.78 113.142Z" fill="black"/>
<path d="M43.7342 74.0908C54.209 55.0449 72.6403 39.9794 93.6905 35.5128C109.712 32.1268 124.829 35.3014 136.249 44.4645C147.668 53.6275 153.963 67.5241 154.127 83.7404C154.46 117.271 127.939 150.224 94.9991 157.202C78.9837 160.592 63.8841 157.386 52.4373 148.257C40.9905 139.129 34.72 125.204 34.5629 108.975C34.4423 96.8757 37.8187 84.8468 43.7342 74.0908ZM144.613 118.453C150.497 107.754 153.855 95.7885 153.732 83.7539C153.573 67.6638 147.269 53.8443 136.016 44.7977C124.763 35.751 109.695 32.5622 93.7969 35.9337C61.036 42.8711 34.6578 75.6384 34.9817 109.008C35.1445 125.091 41.4447 138.917 52.6976 147.964C63.9504 157.01 79.0218 160.193 94.9167 156.828C115.841 152.366 134.178 137.381 144.594 118.442L144.613 118.453Z" fill="black"/>
<path d="M42.6173 69.7374C51.1932 54.144 65.6648 41.6777 83.3689 36.5815C99.3605 31.9765 115.502 33.9931 128.837 42.2498C141.902 50.3407 150.69 63.5088 153.591 79.3195C159.618 112.284 137.951 146.72 105.311 156.137C89.3288 160.739 73.1841 158.728 59.8519 150.465C46.7877 142.374 37.9959 129.213 35.0985 113.396C32.3342 98.3107 35.3733 82.909 42.6173 69.7374ZM145.711 122.779C152.91 109.69 155.929 94.3844 153.187 79.394C150.289 63.6836 141.587 50.6286 128.62 42.5998C115.386 34.3988 99.3568 32.4027 83.4829 36.9736C51.036 46.3075 29.4981 80.5838 35.4986 113.327C38.4004 129.032 47.1027 142.087 60.0656 150.122C73.2972 158.313 89.3261 160.309 105.2 155.738C122.796 150.673 137.184 138.284 145.711 122.779Z" fill="black"/>
<path d="M40.2551 66.569C47.0582 54.233 57.8804 44.5977 70.9236 39.2641C83.9668 33.9304 98.4456 33.2196 111.955 37.2496C125.463 41.2797 137.189 49.808 145.183 61.4175C153.177 73.0271 156.958 87.019 155.898 101.068C154.839 115.118 149.002 128.379 139.357 138.648C129.712 148.918 116.841 155.577 102.882 157.52C88.9222 159.463 74.7149 156.573 62.6206 149.329C50.5262 142.085 41.2728 130.925 36.3978 117.701C33.322 109.401 32.0743 100.535 32.74 91.7108C33.4057 82.8862 35.9691 74.3103 40.2551 66.569ZM148.069 125.954C154.992 113.365 157.269 98.7417 154.502 84.639C151.735 70.5363 144.101 57.8505 132.932 48.7971C121.763 39.7437 107.77 34.8982 93.3964 35.107C79.0229 35.3158 65.1826 40.5656 54.2928 49.9394C43.403 59.3132 36.1559 72.2152 33.8173 86.3921C31.4788 100.569 34.1973 115.119 41.4981 127.502C48.7989 139.885 60.218 149.313 73.7609 154.14C87.3038 158.967 102.11 158.885 115.593 153.91C129.437 148.81 140.97 138.883 148.069 125.954Z" fill="black"/>
</g>
<defs>
<clipPath id="clip0_1_1558">
<rect width="144.093" height="134.924" fill="white" transform="translate(188.174 65.7415) rotate(118.81)"/>
</clipPath>
</defs>
</svg>
